<svg xmlns="http://www.w3.org/2000/svg" xmlns:xlink="http://www.w3.org/1999/xlink" width="500" zoomAndPan="magnify" viewBox="0 0 375 374.999991" height="500" preserveAspectRatio="xMidYMid meet" version="1.0"><defs><clipPath id="3d921d2d82"><path d="M 91.261719 238 L 194 238 L 194 324 L 91.261719 324 Z M 91.261719 238 " clip-rule="nonzero"/></clipPath><clipPath id="135690c39b"><path d="M 123.324219 297.253906 C 129.304688 303.8125 136.269531 307.449219 144.777344 309.316406 C 139.492188 314.1875 134.511719 318.769531 129.328125 323.542969 C 114.742188 313.476562 101.382812 301.164062 94.714844 283.105469 C 91.339844 273.96875 90.175781 264.683594 93.652344 255.246094 C 97.398438 245.078125 106.761719 238.527344 118.105469 238.167969 C 128.265625 237.839844 138.695312 244.539062 142.734375 253.972656 C 146.660156 263.140625 142.757812 273.734375 134.128906 277.15625 C 129.648438 278.933594 125.414062 278.472656 121.730469 275.203125 C 116.789062 270.820312 117.183594 265.402344 122.660156 261.757812 C 122.019531 259.796875 120.597656 259.296875 118.667969 259.453125 C 111.992188 259.984375 107.996094 266.355469 109.675781 273.867188 C 111.578125 282.347656 119.582031 289.1875 128.554688 290.09375 C 138.578125 291.105469 147.457031 287.773438 155.828125 282.808594 C 168.320312 275.398438 179.007812 265.964844 187.230469 253.886719 C 187.308594 253.777344 187.472656 253.714844 187.597656 253.636719 C 196.164062 263.390625 195.570312 274.546875 186.058594 283.714844 C 173.714844 295.621094 158.808594 301.09375 141.859375 300.65625 C 136.222656 300.507812 130.625 298.734375 125.015625 297.699219 C 124.640625 297.628906 124.273438 297.503906 123.316406 297.246094 " clip-rule="nonzero"/></clipPath><clipPath id="7654c7b1e0"><path d="M 0.261719 0 L 103 0 L 103 85.761719 L 0.261719 85.761719 Z M 0.261719 0 " clip-rule="nonzero"/></clipPath><clipPath id="d534b3191e"><path d="M 32.324219 59.253906 C 38.304688 65.8125 45.269531 69.449219 53.777344 71.316406 C 48.492188 76.1875 43.511719 80.769531 38.328125 85.542969 C 23.742188 75.476562 10.382812 63.164062 3.714844 45.105469 C 0.339844 35.96875 -0.824219 26.683594 2.652344 17.246094 C 6.398438 7.078125 15.761719 0.527344 27.105469 0.167969 C 37.265625 -0.160156 47.695312 6.539062 51.734375 15.972656 C 55.660156 25.140625 51.757812 35.734375 43.128906 39.15625 C 38.648438 40.933594 34.414062 40.472656 30.730469 37.203125 C 25.789062 32.820312 26.183594 27.402344 31.660156 23.757812 C 31.019531 21.796875 29.597656 21.296875 27.667969 21.453125 C 20.992188 21.984375 16.996094 28.355469 18.675781 35.867188 C 20.578125 44.347656 28.582031 51.1875 37.554688 52.09375 C 47.578125 53.105469 56.457031 49.773438 64.828125 44.808594 C 77.320312 37.398438 88.007812 27.964844 96.230469 15.886719 C 96.308594 15.777344 96.472656 15.714844 96.597656 15.636719 C 105.164062 25.390625 104.570312 36.546875 95.058594 45.714844 C 82.714844 57.621094 67.808594 63.09375 50.859375 62.65625 C 45.222656 62.507812 39.625 60.734375 34.015625 59.699219 C 33.640625 59.628906 33.273438 59.503906 32.316406 59.246094 " clip-rule="nonzero"/></clipPath><clipPath id="80fdec022e"><rect x="0" width="103" y="0" height="86"/></clipPath><clipPath id="410a73ded1"><path d="M 186 58.578125 L 288.859375 58.578125 L 288.859375 142 L 186 142 Z M 186 58.578125 " clip-rule="nonzero"/></clipPath><clipPath id="474ab0de60"><path d="M 257.191406 119.746094 C 260.246094 122.71875 265.25 122.101562 268.300781 118.527344 C 273.191406 112.789062 272.582031 103.894531 266.828125 97.976562 C 260.84375 91.808594 253.351562 90.441406 245.292969 91.871094 C 232.988281 94.070312 222.6875 100.332031 213.425781 108.445312 C 205.886719 115.050781 199.054688 122.335938 193.015625 130.347656 C 185.085938 123.015625 183.921875 112.710938 190.105469 104.175781 C 195.976562 96.0625 204.167969 91.019531 213.246094 87.316406 C 222.21875 83.648438 231.636719 81.789062 241.308594 81.945312 C 247.011719 82.039062 252.695312 83.015625 258.808594 83.632812 C 250.976562 78.386719 242.878906 74.660156 233.78125 73.472656 C 239.3125 68.578125 244.777344 63.746094 250.382812 58.792969 C 265.492188 69.375 279.320312 81.257812 285.949219 99.371094 C 289.234375 108.328125 289.757812 117.441406 285.832031 126.460938 C 281.457031 136.515625 271.917969 142.261719 260.128906 141.925781 C 250.578125 141.652344 241.339844 134.875 238.046875 125.429688 C 235.976562 119.480469 236.28125 113.613281 240.070312 108.3125 C 244.058594 102.730469 251.367188 101.378906 257.121094 104.730469 C 262.226562 107.703125 264.421875 115.824219 257.175781 119.746094 " clip-rule="nonzero"/></clipPath><clipPath id="24c663334b"><path d="M 0 0.578125 L 102.859375 0.578125 L 102.859375 84 L 0 84 Z M 0 0.578125 " clip-rule="nonzero"/></clipPath><clipPath id="a85031a599"><path d="M 71.191406 61.746094 C 74.246094 64.71875 79.25 64.101562 82.300781 60.527344 C 87.191406 54.789062 86.582031 45.894531 80.828125 39.976562 C 74.84375 33.808594 67.351562 32.441406 59.292969 33.871094 C 46.988281 36.070312 36.6875 42.332031 27.425781 50.445312 C 19.886719 57.050781 13.054688 64.335938 7.015625 72.347656 C -0.914062 65.015625 -2.078125 54.710938 4.105469 46.175781 C 9.976562 38.0625 18.167969 33.019531 27.246094 29.316406 C 36.21875 25.648438 45.636719 23.789062 55.308594 23.945312 C 61.011719 24.039062 66.695312 25.015625 72.808594 25.632812 C 64.976562 20.386719 56.878906 16.660156 47.78125 15.472656 C 53.3125 10.578125 58.777344 5.746094 64.382812 0.792969 C 79.492188 11.375 93.320312 23.257812 99.949219 41.371094 C 103.234375 50.328125 103.757812 59.441406 99.832031 68.460938 C 95.457031 78.515625 85.917969 84.261719 74.128906 83.925781 C 64.578125 83.652344 55.339844 76.875 52.046875 67.429688 C 49.976562 61.480469 50.28125 55.613281 54.070312 50.3125 C 58.058594 44.730469 65.367188 43.378906 71.121094 46.730469 C 76.226562 49.703125 78.421875 57.824219 71.175781 61.746094 " clip-rule="nonzero"/></clipPath><clipPath id="73fe551c7d"><rect x="0" width="103" y="0" height="84"/></clipPath><clipPath id="e9608c8256"><path d="M 92.042969 61 L 150 61 L 150 204.628906 L 92.042969 204.628906 Z M 92.042969 61 " clip-rule="nonzero"/></clipPath><clipPath id="e071936817"><path d="M 137.480469 95.078125 C 136.105469 93.53125 134.738281 91.988281 133.152344 90.199219 C 135.277344 88.230469 137.632812 86.042969 139.984375 83.859375 C 139.921875 83.601562 139.867188 83.351562 139.8125 83.09375 C 137.867188 83.53125 135.785156 83.679688 133.988281 84.460938 C 129.375 86.472656 126.375 90.378906 123.550781 94.3125 C 111.828125 110.648438 110.207031 128.410156 116.585938 147.136719 C 118.261719 152.046875 121.363281 156.027344 125.304688 159.433594 C 126.421875 160.394531 127.320312 162.03125 127.578125 163.492188 C 129.914062 176.578125 135.457031 188.066406 144.3125 197.957031 C 146.175781 200.027344 148.128906 202.023438 149.902344 204.304688 C 148.910156 203.726562 147.910156 203.171875 146.925781 202.578125 C 136.996094 196.636719 127.164062 190.539062 118.574219 182.707031 C 104.894531 170.230469 96.136719 154.878906 93.371094 136.585938 C 90.941406 120.507812 94.496094 105.324219 102.414062 91.128906 C 109.410156 78.589844 119.308594 68.898438 130.964844 61.238281 C 137.027344 68.007812 142.96875 74.636719 148.988281 81.351562 C 145.308594 85.738281 141.328125 90.488281 137.480469 95.078125 " clip-rule="nonzero"/></clipPath><clipPath id="cc7db25814"><path d="M 0.0429688 0.199219 L 58 0.199219 L 58 143.480469 L 0.0429688 143.480469 Z M 0.0429688 0.199219 " clip-rule="nonzero"/></clipPath><clipPath id="6b50188ada"><path d="M 45.480469 34.078125 C 44.105469 32.53125 42.738281 30.988281 41.152344 29.199219 C 43.277344 27.230469 45.632812 25.042969 47.984375 22.859375 C 47.921875 22.601562 47.867188 22.351562 47.8125 22.09375 C 45.867188 22.53125 43.785156 22.679688 41.988281 23.460938 C 37.375 25.472656 34.375 29.378906 31.550781 33.3125 C 19.828125 49.648438 18.207031 67.410156 24.585938 86.136719 C 26.261719 91.046875 29.363281 95.027344 33.304688 98.433594 C 34.421875 99.394531 35.320312 101.03125 35.578125 102.492188 C 37.914062 115.578125 43.457031 127.066406 52.3125 136.957031 C 54.175781 139.027344 56.128906 141.023438 57.902344 143.304688 C 56.910156 142.726562 55.910156 142.171875 54.925781 141.578125 C 44.996094 135.636719 35.164062 129.539062 26.574219 121.707031 C 12.894531 109.230469 4.136719 93.878906 1.371094 75.585938 C -1.058594 59.507812 2.496094 44.324219 10.414062 30.128906 C 17.410156 17.589844 27.308594 7.898438 38.964844 0.238281 C 45.027344 7.007812 50.96875 13.636719 56.988281 20.351562 C 53.308594 24.738281 49.328125 29.488281 45.480469 34.078125 " clip-rule="nonzero"/></clipPath><clipPath id="e856851c82"><rect x="0" width="58" y="0" height="144"/></clipPath><clipPath id="67a1f36917"><path d="M 133 3.90625 L 245 3.90625 L 245 371.765625 L 133 371.765625 Z M 133 3.90625 " clip-rule="nonzero"/></clipPath><clipPath id="61f9eac057"><path d="M 214.847656 278.800781 C 214.847656 278.800781 242.113281 230 179.554688 193.15625 C 179.554688 193.15625 179.429688 193.054688 179.226562 192.867188 C 178.921875 192.695312 178.628906 192.515625 178.316406 192.351562 C 178.316406 192.351562 119.894531 151.078125 163.324219 96.203125 C 163.324219 96.203125 136.058594 145.003906 198.617188 181.847656 C 198.617188 181.847656 198.734375 181.949219 198.945312 182.136719 C 199.253906 182.308594 199.542969 182.480469 199.855469 182.652344 C 199.855469 182.652344 258.277344 223.933594 214.847656 278.800781 M 201.441406 328.265625 C 204.402344 331.4375 204.894531 334.699219 202.511719 338.011719 C 198.367188 343.773438 196.851562 344.28125 191.394531 339.257812 C 190.800781 338.707031 190.371094 337.996094 190.035156 337.566406 C 186.621094 339.835938 183.703125 342.070312 180.515625 343.804688 C 177.660156 345.359375 176.886719 344.929688 175.066406 342.289062 C 171.632812 337.300781 173.035156 329.351562 177.941406 325.820312 C 179.84375 324.441406 181.851562 324.058594 183.882812 325.335938 C 185.527344 326.359375 187.035156 327.601562 188.769531 328.875 C 189.636719 328.257812 190.699219 327.382812 191.871094 326.695312 C 195.117188 324.808594 198.804688 325.453125 201.441406 328.265625 M 172.042969 38.804688 C 172.824219 30.832031 177.246094 25.53125 184.632812 22.730469 C 191.738281 20.035156 198.414062 20.863281 204.574219 25.632812 C 202.027344 27.984375 199.699219 30.140625 197.367188 32.300781 C 192.695312 29.257812 189.566406 29.359375 186.980469 32.660156 C 184.984375 35.191406 185.328125 36.363281 189.269531 40.296875 C 190.503906 39.570312 191.722656 38.742188 193.039062 38.117188 C 195.328125 37.027344 197.648438 36.988281 199.816406 38.46875 C 201.980469 39.945312 202.433594 42.289062 202.082031 44.582031 C 201.714844 46.941406 200.746094 49.199219 199.902344 51.9375 C 196.703125 47.886719 193.984375 43.757812 188.386719 45.917969 C 183.804688 47.691406 181.007812 51.199219 179.757812 56.328125 C 174.394531 51.40625 171.335938 45.894531 172.035156 38.8125 M 229.183594 183.957031 C 220.0625 171.644531 209.015625 161.375 197 151.984375 C 189.519531 146.136719 182.554688 139.84375 177.113281 131.761719 C 168.976562 119.683594 171.015625 102.816406 179.335938 92.945312 C 190.324219 79.898438 205.191406 73.214844 221.539062 69.539062 C 223.1875 69.164062 223.734375 68.65625 223.703125 67.046875 C 223.648438 63.355469 223.734375 59.660156 223.742188 55.96875 C 223.765625 40.351562 217.582031 27.679688 205.425781 17.980469 C 200.253906 13.828125 195.53125 9.378906 192.6875 3.910156 C 188.808594 7.730469 185.054688 11.984375 180.757812 15.570312 C 167.882812 26.304688 159.011719 39.195312 158.054688 56.414062 C 157.757812 61.792969 158.324219 67.21875 158.511719 73.222656 C 161.667969 70.40625 164.050781 68.007812 166.726562 66 C 168.8125 64.417969 169.414062 63.285156 167.539062 60.972656 C 164.800781 57.585938 163.574219 50.878906 165.398438 47.824219 C 168.390625 55.382812 173.550781 61.324219 179.148438 66.820312 C 174.667969 70.601562 170.21875 74.214844 165.9375 78.019531 C 157.257812 85.730469 149.074219 93.929688 143.5 104.253906 C 135.261719 119.511719 131.746094 135.867188 133.738281 153.125 C 134.519531 159.910156 135.792969 166.78125 137.992188 173.222656 C 141.78125 184.308594 149.246094 193.195312 157.671875 201.089844 C 165.320312 208.257812 173.472656 214.902344 181.445312 221.71875 C 188.558594 227.800781 195.640625 233.90625 201.089844 241.628906 C 206.742188 249.632812 209.351562 258.304688 207.070312 268.089844 C 203.113281 285.117188 192.664062 296.902344 177.191406 304.296875 C 171.109375 307.207031 164.558594 309.121094 157.929688 311.59375 C 157.929688 311.84375 157.914062 312.65625 157.9375 313.46875 C 157.960938 314.28125 158.054688 315.101562 158.070312 315.921875 C 158.324219 330.21875 162.941406 342.695312 173.191406 352.945312 C 179.09375 358.835938 185.621094 364.191406 189.527344 371.09375 C 193.125 366.820312 196.710938 362.394531 200.488281 358.132812 C 203.144531 355.125 206.132812 352.402344 208.835938 349.441406 C 220.265625 336.925781 224.28125 322.058594 222.601562 305.488281 C 218.277344 308.722656 213.933594 311.96875 209.585938 315.21875 C 213.527344 320.988281 214.582031 324.660156 213.394531 329.078125 C 209.59375 321.707031 203.441406 316.671875 197.273438 311.523438 C 197.710938 311.199219 198.015625 310.933594 198.351562 310.722656 C 210.09375 303.609375 219.9375 294.433594 227.777344 283.191406 C 236.75 270.316406 243.597656 256.480469 244.699219 240.550781 C 246.121094 219.953125 241.699219 200.855469 229.175781 183.964844 " clip-rule="nonzero"/></clipPath><clipPath id="73c509ea4c"><path d="M 0 0.90625 L 112 0.90625 L 112 368.28125 L 0 368.28125 Z M 0 0.90625 " clip-rule="nonzero"/></clipPath><clipPath id="fdd14e502c"><path d="M 81.847656 275.800781 C 81.847656 275.800781 109.113281 227 46.554688 190.15625 C 46.554688 190.15625 46.429688 190.054688 46.226562 189.867188 C 45.921875 189.695312 45.628906 189.515625 45.316406 189.351562 C 45.316406 189.351562 -13.105469 148.078125 30.324219 93.203125 C 30.324219 93.203125 3.058594 142.003906 65.617188 178.847656 C 65.617188 178.847656 65.734375 178.949219 65.945312 179.136719 C 66.253906 179.308594 66.542969 179.480469 66.855469 179.652344 C 66.855469 179.652344 125.277344 220.933594 81.847656 275.800781 M 68.441406 325.265625 C 71.402344 328.4375 71.894531 331.699219 69.511719 335.011719 C 65.367188 340.773438 63.851562 341.28125 58.394531 336.257812 C 57.800781 335.707031 57.371094 334.996094 57.035156 334.566406 C 53.621094 336.835938 50.703125 339.070312 47.515625 340.804688 C 44.660156 342.359375 43.886719 341.929688 42.066406 339.289062 C 38.632812 334.300781 40.035156 326.351562 44.941406 322.820312 C 46.84375 321.441406 48.851562 321.058594 50.882812 322.335938 C 52.527344 323.359375 54.035156 324.601562 55.769531 325.875 C 56.636719 325.257812 57.699219 324.382812 58.871094 323.695312 C 62.117188 321.808594 65.804688 322.453125 68.441406 325.265625 M 39.042969 35.804688 C 39.824219 27.832031 44.246094 22.53125 51.632812 19.730469 C 58.738281 17.035156 65.414062 17.863281 71.574219 22.632812 C 69.027344 24.984375 66.699219 27.140625 64.367188 29.300781 C 59.695312 26.257812 56.566406 26.359375 53.980469 29.660156 C 51.984375 32.191406 52.328125 33.363281 56.269531 37.296875 C 57.503906 36.570312 58.722656 35.742188 60.039062 35.117188 C 62.328125 34.027344 64.648438 33.988281 66.816406 35.46875 C 68.980469 36.945312 69.433594 39.289062 69.082031 41.582031 C 68.714844 43.941406 67.746094 46.199219 66.902344 48.9375 C 63.703125 44.886719 60.984375 40.757812 55.386719 42.917969 C 50.804688 44.691406 48.007812 48.199219 46.757812 53.328125 C 41.394531 48.40625 38.335938 42.894531 39.035156 35.8125 M 96.183594 180.957031 C 87.0625 168.644531 76.015625 158.375 64 148.984375 C 56.519531 143.136719 49.554688 136.84375 44.113281 128.761719 C 35.976562 116.683594 38.015625 99.816406 46.335938 89.945312 C 57.324219 76.898438 72.191406 70.214844 88.539062 66.539062 C 90.1875 66.164062 90.734375 65.65625 90.703125 64.046875 C 90.648438 60.355469 90.734375 56.660156 90.742188 52.96875 C 90.765625 37.351562 84.582031 24.679688 72.425781 14.980469 C 67.253906 10.828125 62.53125 6.378906 59.6875 0.910156 C 55.808594 4.730469 52.054688 8.984375 47.757812 12.570312 C 34.882812 23.304688 26.011719 36.195312 25.054688 53.414062 C 24.757812 58.792969 25.324219 64.21875 25.511719 70.222656 C 28.667969 67.40625 31.050781 65.007812 33.726562 63 C 35.8125 61.417969 36.414062 60.285156 34.539062 57.972656 C 31.800781 54.585938 30.574219 47.878906 32.398438 44.824219 C 35.390625 52.382812 40.550781 58.324219 46.148438 63.820312 C 41.667969 67.601562 37.21875 71.214844 32.9375 75.019531 C 24.257812 82.730469 16.074219 90.929688 10.5 101.253906 C 2.261719 116.511719 -1.253906 132.867188 0.738281 150.125 C 1.519531 156.910156 2.792969 163.78125 4.992188 170.222656 C 8.78125 181.308594 16.246094 190.195312 24.671875 198.089844 C 32.320312 205.257812 40.472656 211.902344 48.445312 218.71875 C 55.558594 224.800781 62.640625 230.90625 68.089844 238.628906 C 73.742188 246.632812 76.351562 255.304688 74.070312 265.089844 C 70.113281 282.117188 59.664062 293.902344 44.191406 301.296875 C 38.109375 304.207031 31.558594 306.121094 24.929688 308.59375 C 24.929688 308.84375 24.914062 309.65625 24.9375 310.46875 C 24.960938 311.28125 25.054688 312.101562 25.070312 312.921875 C 25.324219 327.21875 29.941406 339.695312 40.191406 349.945312 C 46.09375 355.835938 52.621094 361.191406 56.527344 368.09375 C 60.125 363.820312 63.710938 359.394531 67.488281 355.132812 C 70.144531 352.125 73.132812 349.402344 75.835938 346.441406 C 87.265625 333.925781 91.28125 319.058594 89.601562 302.488281 C 85.277344 305.722656 80.933594 308.96875 76.585938 312.21875 C 80.527344 317.988281 81.582031 321.660156 80.394531 326.078125 C 76.59375 318.707031 70.441406 313.671875 64.273438 308.523438 C 64.710938 308.199219 65.015625 307.933594 65.351562 307.722656 C 77.09375 300.609375 86.9375 291.433594 94.777344 280.191406 C 103.75 267.316406 110.597656 253.480469 111.699219 237.550781 C 113.121094 216.953125 108.699219 197.855469 96.175781 180.964844 " clip-rule="nonzero"/></clipPath><clipPath id="a9d9fb1bd8"><rect x="0" width="112" y="0" height="369"/></clipPath><clipPath id="2b16ac7fc4"><path d="M 231.0625 176 L 288.859375 176 L 288.859375 319.4375 L 231.0625 319.4375 Z M 231.0625 176 " clip-rule="nonzero"/></clipPath><clipPath id="60c9e73655"><path d="M 243.746094 285.304688 C 245.121094 286.851562 246.488281 288.390625 248.078125 290.179688 C 245.949219 292.152344 243.597656 294.339844 241.246094 296.519531 C 241.308594 296.777344 241.363281 297.027344 241.417969 297.285156 C 243.363281 296.847656 245.441406 296.699219 247.242188 295.917969 C 251.851562 293.910156 254.855469 290 257.675781 286.070312 C 269.402344 269.722656 271.019531 251.972656 264.640625 233.242188 C 262.96875 228.332031 259.863281 224.355469 255.925781 220.945312 C 254.816406 219.984375 253.90625 218.351562 253.648438 216.890625 C 251.3125 203.804688 245.769531 192.3125 236.914062 182.425781 C 235.054688 180.351562 233.097656 178.359375 231.324219 176.078125 C 232.316406 176.65625 233.316406 177.210938 234.304688 177.804688 C 244.230469 183.746094 254.066406 189.84375 262.65625 197.675781 C 276.335938 210.152344 285.089844 225.503906 287.855469 243.796875 C 290.289062 259.875 286.730469 275.0625 278.8125 289.25 C 271.816406 301.789062 261.914062 311.484375 250.265625 319.144531 C 244.199219 312.375 238.257812 305.746094 232.246094 299.03125 C 235.929688 294.644531 239.90625 289.890625 243.753906 285.304688 " clip-rule="nonzero"/></clipPath><clipPath id="d11e9ec434"><path d="M 0.121094 0 L 57.859375 0 L 57.859375 143.199219 L 0.121094 143.199219 Z M 0.121094 0 " clip-rule="nonzero"/></clipPath><clipPath id="ecec658071"><path d="M 12.746094 109.304688 C 14.121094 110.851562 15.488281 112.390625 17.078125 114.179688 C 14.949219 116.152344 12.597656 118.339844 10.246094 120.519531 C 10.308594 120.777344 10.363281 121.027344 10.417969 121.285156 C 12.363281 120.847656 14.441406 120.699219 16.242188 119.917969 C 20.851562 117.910156 23.855469 114 26.675781 110.070312 C 38.402344 93.722656 40.019531 75.972656 33.640625 57.242188 C 31.96875 52.332031 28.863281 48.355469 24.925781 44.945312 C 23.816406 43.984375 22.90625 42.351562 22.648438 40.890625 C 20.3125 27.804688 14.769531 16.3125 5.914062 6.425781 C 4.054688 4.351562 2.097656 2.359375 0.324219 0.078125 C 1.316406 0.65625 2.316406 1.210938 3.304688 1.804688 C 13.230469 7.746094 23.066406 13.84375 31.65625 21.675781 C 45.335938 34.152344 54.089844 49.503906 56.855469 67.796875 C 59.289062 83.875 55.730469 99.0625 47.8125 113.25 C 40.816406 125.789062 30.914062 135.484375 19.265625 143.144531 C 13.199219 136.375 7.257812 129.746094 1.246094 123.03125 C 4.929688 118.644531 8.90625 113.890625 12.753906 109.304688 " clip-rule="nonzero"/></clipPath><clipPath id="b0e78a7aff"><rect x="0" width="58" y="0" height="144"/></clipPath><clipPath id="6503e56ec2"><path d="M 98.289062 179.632812 L 181 179.632812 L 181 253.050781 L 98.289062 253.050781 Z M 98.289062 179.632812 " clip-rule="nonzero"/></clipPath><clipPath id="377ef14f8e"><path d="M 180.78125 242.222656 C 176.933594 245.929688 173.253906 249.46875 169.546875 253.042969 C 166.195312 250.449219 163.128906 248.007812 159.988281 245.664062 C 150.589844 238.636719 140.945312 231.992188 129.890625 227.753906 C 121.691406 224.613281 113.289062 223.316406 104.621094 225.589844 C 102.820312 226.058594 101.109375 226.839844 99.132812 227.558594 L 99.132812 211.839844 C 101.742188 212.410156 104.386719 212.996094 107.332031 213.636719 C 105.175781 210.785156 103.265625 208.421875 101.539062 205.9375 C 98.367188 201.347656 98.4375 196.066406 98.5 190.796875 C 98.546875 187.363281 98.507812 183.933594 98.507812 179.726562 C 100.203125 181.910156 101.445312 183.480469 102.65625 185.082031 C 111.632812 196.902344 123.308594 205.59375 135.644531 213.480469 C 149.792969 222.527344 164.019531 231.4375 178.207031 240.410156 C 179.09375 240.964844 179.914062 241.613281 180.773438 242.222656 " clip-rule="nonzero"/></clipPath><clipPath id="272984a980"><path d="M 0.289062 0.632812 L 82.960938 0.632812 L 82.960938 74.050781 L 0.289062 74.050781 Z M 0.289062 0.632812 " clip-rule="nonzero"/></clipPath><clipPath id="dcee427c26"><path d="M 82.78125 63.222656 C 78.933594 66.929688 75.253906 70.46875 71.546875 74.042969 C 68.195312 71.449219 65.128906 69.007812 61.988281 66.664062 C 52.589844 59.636719 42.945312 52.992188 31.890625 48.753906 C 23.691406 45.613281 15.289062 44.316406 6.621094 46.589844 C 4.820312 47.058594 3.109375 47.839844 1.132812 48.558594 L 1.132812 32.839844 C 3.742188 33.410156 6.386719 33.996094 9.332031 34.636719 C 7.175781 31.785156 5.265625 29.421875 3.539062 26.9375 C 0.367188 22.347656 0.4375 17.066406 0.5 11.796875 C 0.546875 8.363281 0.507812 4.933594 0.507812 0.726562 C 2.203125 2.910156 3.445312 4.480469 4.65625 6.082031 C 13.632812 17.902344 25.308594 26.59375 37.644531 34.480469 C 51.792969 43.527344 66.019531 52.4375 80.207031 61.410156 C 81.09375 61.964844 81.914062 62.613281 82.773438 63.222656 " clip-rule="nonzero"/></clipPath><clipPath id="9a13db5fb2"><rect x="0" width="83" y="0" height="75"/></clipPath><clipPath id="f0ade06a89"><path d="M 95 169.480469 L 127.96875 169.480469 L 127.96875 214 L 95 214 Z M 95 169.480469 " clip-rule="nonzero"/></clipPath><clipPath id="d091856ecd"><path d="M 107.332031 213.636719 C 107.332031 213.636719 89.746094 196.355469 96.78125 169.753906 C 96.78125 169.753906 97.125 185.910156 127.375 207.953125 Z M 107.332031 213.636719 " clip-rule="nonzero"/></clipPath><clipPath id="6b0a292851"><path d="M 0 0.679688 L 32.441406 0.679688 L 32.441406 44.839844 L 0 44.839844 Z M 0 0.679688 " clip-rule="nonzero"/></clipPath><clipPath id="ee2a60fb24"><path d="M 12.332031 44.636719 C 12.332031 44.636719 -5.253906 27.355469 1.78125 0.753906 C 1.78125 0.753906 2.125 16.910156 32.375 38.953125 Z M 12.332031 44.636719 " clip-rule="nonzero"/></clipPath><clipPath id="759e551c8e"><rect x="0" width="33" y="0" height="45"/></clipPath><clipPath id="6bfd0817d1"><path d="M 77.203125 211 L 111.566406 211 L 111.566406 256.957031 L 77.203125 256.957031 Z M 77.203125 211 " clip-rule="nonzero"/></clipPath><clipPath id="0aceeba870"><path d="M 107.332031 213.636719 C 107.332031 213.636719 85.46875 196.660156 77.207031 256.292969 C 77.207031 256.292969 84.125 226.980469 111.25 224.511719 Z M 107.332031 213.636719 " clip-rule="nonzero"/></clipPath><clipPath id="790f167332"><path d="M 0.203125 0 L 34.359375 0 L 34.359375 45.320312 L 0.203125 45.320312 Z M 0.203125 0 " clip-rule="nonzero"/></clipPath><clipPath id="8e6c449ce3"><path d="M 30.332031 2.636719 C 30.332031 2.636719 8.46875 -14.339844 0.207031 45.292969 C 0.207031 45.292969 7.125 15.980469 34.25 13.511719 Z M 30.332031 2.636719 " clip-rule="nonzero"/></clipPath><clipPath id="4ab3329fea"><rect x="0" width="35" y="0" height="46"/></clipPath><clipPath id="fe62302274"><path d="M 204 128.085938 L 286.515625 128.085938 L 286.515625 201.503906 L 204 201.503906 Z M 204 128.085938 " clip-rule="nonzero"/></clipPath><clipPath id="02c81aa81b"><path d="M 204.027344 138.929688 C 207.875 135.234375 211.554688 131.683594 215.261719 128.113281 C 218.613281 130.707031 221.679688 133.144531 224.820312 135.492188 C 234.21875 142.519531 243.863281 149.164062 254.917969 153.398438 C 263.117188 156.542969 271.519531 157.839844 280.1875 155.566406 C 281.988281 155.097656 283.699219 154.316406 285.675781 153.59375 L 285.675781 169.308594 C 283.066406 168.738281 280.421875 168.160156 277.476562 167.507812 C 279.632812 170.363281 281.542969 172.722656 283.269531 175.210938 C 286.441406 179.796875 286.371094 185.082031 286.308594 190.351562 C 286.261719 193.78125 286.300781 197.214844 286.300781 201.417969 C 284.605469 199.238281 283.363281 197.667969 282.152344 196.066406 C 273.175781 184.246094 261.5 175.554688 249.164062 167.664062 C 235.015625 158.621094 220.789062 149.710938 206.601562 140.738281 C 205.714844 140.179688 204.894531 139.53125 204.035156 138.921875 " clip-rule="nonzero"/></clipPath><clipPath id="38b33c88a2"><path d="M 0 0.0859375 L 82.515625 0.0859375 L 82.515625 73.503906 L 0 73.503906 Z M 0 0.0859375 " clip-rule="nonzero"/></clipPath><clipPath id="5a3b0c5dbe"><path d="M 0.0273438 10.929688 C 3.875 7.234375 7.554688 3.683594 11.261719 0.113281 C 14.613281 2.707031 17.679688 5.144531 20.820312 7.492188 C 30.21875 14.519531 39.863281 21.164062 50.917969 25.398438 C 59.117188 28.542969 67.519531 29.839844 76.1875 27.566406 C 77.988281 27.097656 79.699219 26.316406 81.675781 25.59375 L 81.675781 41.308594 C 79.066406 40.738281 76.421875 40.160156 73.476562 39.507812 C 75.632812 42.363281 77.542969 44.722656 79.269531 47.210938 C 82.441406 51.796875 82.371094 57.082031 82.308594 62.351562 C 82.261719 65.78125 82.300781 69.214844 82.300781 73.417969 C 80.605469 71.238281 79.363281 69.667969 78.152344 68.066406 C 69.175781 56.246094 57.5 47.554688 45.164062 39.664062 C 31.015625 30.621094 16.789062 21.710938 2.601562 12.738281 C 1.714844 12.179688 0.894531 11.53125 0.0351562 10.921875 " clip-rule="nonzero"/></clipPath><clipPath id="9639c6dca2"><rect x="0" width="83" y="0" height="74"/></clipPath><clipPath id="1a420186b9"><path d="M 257 167.136719 L 290 167.136719 L 290 211.65625 L 257 211.65625 Z M 257 167.136719 " clip-rule="nonzero"/></clipPath><clipPath id="99f4f27d6f"><path d="M 277.476562 167.515625 C 277.476562 167.515625 295.066406 184.800781 288.027344 211.402344 C 288.027344 211.402344 287.683594 195.253906 257.433594 173.199219 Z M 277.476562 167.515625 " clip-rule="nonzero"/></clipPath><clipPath id="96ac4cd6c5"><path d="M 0.28125 0.28125 L 33 0.28125 L 33 44.441406 L 0.28125 44.441406 Z M 0.28125 0.28125 " clip-rule="nonzero"/></clipPath><clipPath id="68e3ff6b6b"><path d="M 20.476562 0.515625 C 20.476562 0.515625 38.066406 17.800781 31.027344 44.402344 C 31.027344 44.402344 30.683594 28.253906 0.433594 6.199219 Z M 20.476562 0.515625 " clip-rule="nonzero"/></clipPath><clipPath id="04ca83b2c6"><rect x="0" width="33" y="0" height="45"/></clipPath><clipPath id="ab3c2102b6"><path d="M 273.238281 124.183594 L 307.601562 124.183594 L 307.601562 170 L 273.238281 170 Z M 273.238281 124.183594 " clip-rule="nonzero"/></clipPath><clipPath id="a830c98ec5"><path d="M 277.476562 167.515625 C 277.476562 167.515625 299.347656 184.496094 307.601562 124.859375 C 307.601562 124.859375 300.683594 154.175781 273.558594 156.644531 Z M 277.476562 167.515625 " clip-rule="nonzero"/></clipPath><clipPath id="56b18f0fd5"><path d="M 0.359375 0.800781 L 34.601562 0.800781 L 34.601562 46 L 0.359375 46 Z M 0.359375 0.800781 " clip-rule="nonzero"/></clipPath><clipPath id="d412142eb3"><path d="M 4.476562 43.515625 C 4.476562 43.515625 26.347656 60.496094 34.601562 0.859375 C 34.601562 0.859375 27.683594 30.175781 0.558594 32.644531 Z M 4.476562 43.515625 " clip-rule="nonzero"/></clipPath><clipPath id="e39f0468b8"><rect x="0" width="35" y="0" height="46"/></clipPath></defs><g clip-path="url(#3d921d2d82)"><g clip-path="url(#135690c39b)"><g transform="matrix(1, 0, 0, 1, 91, 238)"><g clip-path="url(#80fdec022e)"><g clip-path="url(#7654c7b1e0)"><g clip-path="url(#d534b3191e)"><rect x="-173.5" width="540" fill="#ffffff" height="539.999987" y="-320.499998" fill-opacity="1"/></g></g></g></g></g></g><g clip-path="url(#410a73ded1)"><g clip-path="url(#474ab0de60)"><g transform="matrix(1, 0, 0, 1, 186, 58)"><g clip-path="url(#73fe551c7d)"><g clip-path="url(#24c663334b)"><g clip-path="url(#a85031a599)"><rect x="-268.5" width="540" fill="#e4e1e4" height="539.999987" y="-140.499998" fill-opacity="1"/></g></g></g></g></g></g><g clip-path="url(#e9608c8256)"><g clip-path="url(#e071936817)"><g transform="matrix(1, 0, 0, 1, 92, 61)"><g clip-path="url(#e856851c82)"><g clip-path="url(#cc7db25814)"><g clip-path="url(#6b50188ada)"><rect x="-174.5" width="540" fill="#e4e1e4" height="539.999987" y="-143.499998" fill-opacity="1"/></g></g></g></g></g></g><g clip-path="url(#67a1f36917)"><g clip-path="url(#61f9eac057)"><g transform="matrix(1, 0, 0, 1, 133, 3)"><g clip-path="url(#a9d9fb1bd8)"><g clip-path="url(#73c509ea4c)"><g clip-path="url(#fdd14e502c)"><rect x="-215.5" width="540" fill="#e4e1e4" height="539.999987" y="-85.499998" fill-opacity="1"/></g></g></g></g></g></g><g clip-path="url(#2b16ac7fc4)"><g clip-path="url(#60c9e73655)"><g transform="matrix(1, 0, 0, 1, 231, 176)"><g clip-path="url(#b0e78a7aff)"><g clip-path="url(#d11e9ec434)"><g clip-path="url(#ecec658071)"><rect x="-313.5" width="540" fill="#e4e1e4" height="539.999987" y="-258.499998" fill-opacity="1"/></g></g></g></g></g></g><g clip-path="url(#6503e56ec2)"><g clip-path="url(#377ef14f8e)"><g transform="matrix(1, 0, 0, 1, 98, 179)"><g clip-path="url(#9a13db5fb2)"><g clip-path="url(#272984a980)"><g clip-path="url(#dcee427c26)"><rect x="-180.5" width="540" fill="#e4e1e4" height="539.999987" y="-261.499998" fill-opacity="1"/></g></g></g></g></g></g><g clip-path="url(#f0ade06a89)"><g clip-path="url(#d091856ecd)"><g transform="matrix(1, 0, 0, 1, 95, 169)"><g clip-path="url(#759e551c8e)"><g clip-path="url(#6b0a292851)"><g clip-path="url(#ee2a60fb24)"><rect x="-177.5" width="540" fill="#e4e1e4" height="539.999987" y="-251.499998" fill-opacity="1"/></g></g></g></g></g></g><g clip-path="url(#6bfd0817d1)"><g clip-path="url(#0aceeba870)"><g transform="matrix(1, 0, 0, 1, 77, 211)"><g clip-path="url(#4ab3329fea)"><g clip-path="url(#790f167332)"><g clip-path="url(#8e6c449ce3)"><rect x="-159.5" width="540" fill="#e4e1e4" height="539.999987" y="-293.499998" fill-opacity="1"/></g></g></g></g></g></g><g clip-path="url(#fe62302274)"><g clip-path="url(#02c81aa81b)"><g transform="matrix(1, 0, 0, 1, 204, 128)"><g clip-path="url(#9639c6dca2)"><g clip-path="url(#38b33c88a2)"><g clip-path="url(#5a3b0c5dbe)"><rect x="-286.5" width="540" fill="#e4e1e4" height="539.999987" y="-210.499998" fill-opacity="1"/></g></g></g></g></g></g><g clip-path="url(#1a420186b9)"><g clip-path="url(#99f4f27d6f)"><g transform="matrix(1, 0, 0, 1, 257, 167)"><g clip-path="url(#04ca83b2c6)"><g clip-path="url(#96ac4cd6c5)"><g clip-path="url(#68e3ff6b6b)"><rect x="-339.5" width="540" fill="#e4e1e4" height="539.999987" y="-249.499998" fill-opacity="1"/></g></g></g></g></g></g><g clip-path="url(#ab3c2102b6)"><g clip-path="url(#a830c98ec5)"><g transform="matrix(1, 0, 0, 1, 273, 124)"><g clip-path="url(#e39f0468b8)"><g clip-path="url(#56b18f0fd5)"><g clip-path="url(#d412142eb3)"><rect x="-355.5" width="540" fill="#e4e1e4" height="539.999987" y="-206.499998" fill-opacity="1"/></g></g></g></g></g></g></svg>